<?xml version="1.0" standalone="no"?>
<!DOCTYPE svg PUBLIC "-//W3C//DTD SVG 20010904//EN"
 "http://www.w3.org/TR/2001/REC-SVG-20010904/DTD/svg10.dtd">
<svg version="1.0" xmlns="http://www.w3.org/2000/svg"
 width="245.000000pt" height="215.000000pt" viewBox="0 0 245.000000 215.000000"
 preserveAspectRatio="xMidYMid meet">
<metadata>
Created by potrace 1.10, written by Peter Selinger 2001-2011
</metadata>
<g transform="translate(0.000000,215.000000) scale(0.100000,-0.100000)"
fill="#000000" stroke="none">
<path d="M587 2143 c-5 -7 450 -7 1033 0 124 1 -57 3 -402 5 -345 1 -629 -1
-631 -5z"/>
<path d="M561 2104 c0 -11 3 -14 6 -6 3 7 2 16 -1 19 -3 4 -6 -2 -5 -13z"/>
<path d="M590 2108 c0 -6 129 -240 286 -520 176 -311 284 -515 282 -525 -3
-10 -136 -242 -297 -517 -160 -274 -291 -503 -291 -507 0 -5 274 -8 626 -7
l625 3 281 475 c154 261 290 493 303 515 l24 40 -296 528 -296 527 -623 0
c-472 0 -624 -3 -624 -12z m1350 -220 c125 -225 124 -224 239 -427 45 -78 81
-145 81 -148 0 -3 8 -17 18 -31 11 -15 38 -63 62 -107 23 -44 47 -85 52 -92
12 -15 -21 -79 -119 -236 -13 -21 -32 -52 -42 -70 -24 -42 -79 -137 -94 -162
-49 -79 -64 -105 -84 -142 -12 -23 -36 -63 -52 -90 -17 -26 -49 -81 -73 -121
-24 -41 -47 -81 -53 -91 -5 -9 -23 -38 -38 -64 l-28 -47 -604 -2 -604 -3 15
24 c9 12 29 46 44 75 16 28 50 88 77 133 410 700 443 759 443 783 0 24 -30 86
-110 225 -70 122 -78 136 -198 350 -52 94 -98 175 -102 180 -4 6 -22 37 -40
70 -18 33 -48 87 -66 121 -19 33 -34 64 -34 67 0 4 269 7 599 7 l599 0 112
-202z"/>
<path d="M501 1843 c7 -12 15 -20 18 -17 3 2 -3 12 -13 22 -17 16 -18 16 -5
-5z"/>
<path d="M248 1455 l-218 -385 216 -370 c120 -205 223 -370 230 -370 12 0 14
116 12 752 -2 490 -6 752 -13 755 -5 1 -108 -171 -227 -382z m210 -721 l-3
-345 -110 187 c-125 212 -147 250 -229 392 l-58 102 178 316 c99 174 188 332
199 352 l20 37 3 -347 c1 -192 1 -504 0 -694z"/>
<path d="M380 1750 c-6 -11 -8 -20 -6 -20 3 0 10 9 16 20 6 11 8 20 6 20 -3 0
-10 -9 -16 -20z"/>
<path d="M120 1290 c-6 -11 -8 -20 -6 -20 3 0 10 9 16 20 6 11 8 20 6 20 -3 0
-10 -9 -16 -20z"/>
<path d="M80 1220 c-6 -11 -8 -20 -6 -20 3 0 10 9 16 20 6 11 8 20 6 20 -3 0
-10 -9 -16 -20z"/>
<path d="M240 650 c6 -11 13 -20 16 -20 2 0 0 9 -6 20 -6 11 -13 20 -16 20 -2
0 0 -9 6 -20z"/>
<path d="M310 530 c6 -11 13 -20 16 -20 2 0 0 9 -6 20 -6 11 -13 20 -16 20 -2
0 0 -9 6 -20z"/>
<path d="M340 480 c6 -11 13 -20 16 -20 2 0 0 9 -6 20 -6 11 -13 20 -16 20 -2
0 0 -9 6 -20z"/>
<path d="M430 326 c0 -2 8 -10 18 -17 15 -13 16 -12 3 4 -13 16 -21 21 -21 13z"/>
<path d="M1950 210 c-6 -11 -8 -20 -6 -20 3 0 10 9 16 20 6 11 8 20 6 20 -3 0
-10 -9 -16 -20z"/>
<path d="M600 160 c-6 -11 -8 -20 -6 -20 3 0 10 9 16 20 6 11 8 20 6 20 -3 0
-10 -9 -16 -20z"/>
<path d="M541 44 c0 -11 3 -14 6 -6 3 7 2 16 -1 19 -3 4 -6 -2 -5 -13z"/>
<path d="M1829 13 c-13 -16 -12 -17 4 -4 16 13 21 21 13 21 -2 0 -10 -8 -17
-17z"/>
</g>
</svg>
